<?xml version="1.0" standalone="no"?>
<!DOCTYPE svg PUBLIC "-//W3C//DTD SVG 20010904//EN"
 "http://www.w3.org/TR/2001/REC-SVG-20010904/DTD/svg10.dtd">
<svg version="1.0" xmlns="http://www.w3.org/2000/svg"
 width="640.000000pt" height="640.000000pt" viewBox="0 0 640.000000 640.000000"
 preserveAspectRatio="xMidYMid meet">
<metadata>
Created by potrace 1.11, written by Peter Selinger 2001-2013
</metadata>
<g transform="translate(0.000000,640.000000) scale(0.100000,-0.100000)"
fill="#000000" stroke="none">
<path d="M0 3200 l0 -3200 3200 0 3200 0 0 3200 0 3200 -3200 0 -3200 0 0
-3200z m1645 2392 c498 -417 869 -570 1193 -492 279 67 503 303 732 773 l78
158 22 -118 c62 -336 161 -622 268 -779 53 -79 151 -170 209 -196 59 -26 174
-35 240 -19 130 33 283 133 457 301 l105 101 -6 -143 c-5 -143 9 -441 28 -573
22 -153 84 -377 130 -468 35 -68 108 -178 157 -236 53 -62 180 -160 262 -201
123 -62 361 -120 494 -120 l61 0 -107 -100 c-240 -226 -409 -460 -470 -653
-20 -62 -23 -93 -23 -227 1 -143 3 -161 29 -240 60 -180 162 -345 336 -543 60
-69 136 -148 167 -177 l58 -51 -55 22 c-263 105 -501 149 -652 121 -133 -25
-247 -112 -308 -232 -59 -117 -81 -231 -87 -446 -4 -117 -1 -228 6 -288 6 -55
10 -100 9 -101 -2 -2 -37 17 -78 42 -181 109 -398 194 -590 233 -135 28 -363
37 -496 21 -464 -57 -941 -307 -1360 -713 l-70 -69 0 193 c1 213 -12 328 -51
453 -38 119 -79 193 -143 256 -118 115 -276 158 -473 128 -222 -33 -460 -120
-766 -281 -84 -44 -150 -74 -145 -67 4 8 42 66 84 129 97 145 158 247 202 335
193 386 198 678 15 873 -54 56 -174 141 -266 187 -48 24 -292 121 -500 200
l-73 28 53 30 c481 268 739 614 739 991 0 190 -71 402 -199 591 l-41 60 33 8
c17 5 123 29 234 53 111 24 237 55 280 69 329 110 416 343 281 750 -59 179
-211 469 -384 733 -52 79 -94 144 -94 146 0 1 85 -81 188 -183 103 -102 232
-224 287 -269z"/>
<path d="M2455 4703 c-14 -3 -120 -177 -380 -629 -198 -344 -364 -634 -369
-645 -13 -27 17 -97 70 -168 74 -99 199 -151 363 -151 l77 0 372 645 372 645
-53 68 c-74 92 -154 165 -213 195 -71 36 -174 53 -239 40z"/>
<path d="M3315 4561 c-21 -9 -845 -1466 -845 -1493 0 -30 52 -121 97 -169 81
-87 189 -128 339 -129 l80 0 249 443 c136 243 324 578 418 744 l169 302 -67
86 c-77 99 -158 167 -231 194 -59 22 -180 35 -209 22z"/>
<path d="M4060 4163 c-22 -3 -79 -99 -438 -738 l-413 -734 29 -63 c72 -158
209 -238 406 -238 l91 1 408 728 c224 400 407 733 407 740 0 19 -101 141 -161
196 -95 85 -217 126 -329 108z"/>
<path d="M4653 3472 c-17 -5 -113 -163 -368 -605 l-346 -598 37 -70 c79 -149
221 -229 409 -229 l80 0 343 594 c188 326 342 598 342 605 0 23 -126 164 -190
212 -36 27 -87 58 -115 68 -56 21 -159 33 -192 23z"/>
<path d="M1508 2911 c-94 -101 -143 -176 -175 -270 -22 -66 -29 -157 -17 -219
6 -30 25 -39 666 -327 l659 -297 56 34 c64 38 146 130 179 203 35 74 45 139
42 264 l-3 112 -657 295 c-362 162 -660 294 -662 294 -2 0 -42 -40 -88 -89z"/>
</g>
</svg>
